<?xml version="1.0" encoding="UTF-8" standalone="no"?>
<!DOCTYPE svg PUBLIC "-//W3C//DTD SVG 1.1//EN"
 "http://www.w3.org/Graphics/SVG/1.1/DTD/svg11.dtd">
<!-- Generated by graphviz version 2.38.0 (20140413.2041)
 -->
<!-- Title: G Pages: 1 -->
<svg width="1217pt" height="2557pt"
 viewBox="0.00 0.00 1216.67 2557.22" xmlns="http://www.w3.org/2000/svg" xmlns:xlink="http://www.w3.org/1999/xlink">
<g id="graph0" class="graph" transform="scale(1 1) rotate(0) translate(4 2553.22)">
<title>G</title>
<polygon fill="white" stroke="none" points="-4,4 -4,-2553.22 1212.67,-2553.22 1212.67,4 -4,4"/>
<!-- n1 -->
<g id="node1" class="node"><title>n1</title>
<g id="a_node1"><a xlink:title="[[C]]:&#45;1_">
<ellipse fill="none" stroke="black" cx="654.113" cy="-2513.87" rx="78.145" ry="35.2113"/>
<text text-anchor="middle" x="654.113" y="-2523.67" font-family="Times,serif" font-size="14.00">Node1</text>
<text text-anchor="start" x="606.908" y="-2509.67" font-family="Times,serif" font-size="14.00">input = {}</text>
<text text-anchor="middle" x="654.113" y="-2495.67" font-family="Times,serif" font-size="14.00">reverseMap = {}</text>
</a>
</g>
</g>
<!-- n2 -->
<g id="node2" class="node"><title>n2</title>
<g id="a_node2"><a xlink:title="[test_graph.lua]:101_">
<ellipse fill="none" stroke="black" cx="654.113" cy="-2407.16" rx="114.518" ry="35.2113"/>
<text text-anchor="middle" x="654.113" y="-2416.96" font-family="Times,serif" font-size="14.00">Node2</text>
<text text-anchor="start" x="581.143" y="-2402.96" font-family="Times,serif" font-size="14.00">module = nn.LogSoftMax</text>
<text text-anchor="middle" x="654.113" y="-2388.96" font-family="Times,serif" font-size="14.00">reverseMap = {}</text>
</a>
</g>
</g>
<!-- n1&#45;&gt;n2 -->
<g id="edge1" class="edge"><title>n1&#45;&gt;n2</title>
<path fill="none" stroke="black" d="M654.113,-2478.29C654.113,-2470.16 654.113,-2461.38 654.113,-2452.87"/>
<polygon fill="black" stroke="black" points="657.613,-2452.7 654.113,-2442.7 650.613,-2452.7 657.613,-2452.7"/>
</g>
<!-- n3 -->
<g id="node3" class="node"><title>n3</title>
<g id="a_node3"><a xlink:title="[test_graph.lua]:101_">
<ellipse fill="none" stroke="black" cx="654.113" cy="-2300.45" rx="176.327" ry="35.2113"/>
<text text-anchor="middle" x="654.113" y="-2310.25" font-family="Times,serif" font-size="14.00">Node3</text>
<text text-anchor="start" x="537.547" y="-2296.25" font-family="Times,serif" font-size="14.00">module = nn.Linear(50 &#45;&gt; 6) without bias</text>
<text text-anchor="middle" x="654.113" y="-2282.25" font-family="Times,serif" font-size="14.00">reverseMap = {}</text>
</a>
</g>
</g>
<!-- n2&#45;&gt;n3 -->
<g id="edge2" class="edge"><title>n2&#45;&gt;n3</title>
<path fill="none" stroke="black" d="M654.113,-2371.58C654.113,-2363.45 654.113,-2354.67 654.113,-2346.16"/>
<polygon fill="black" stroke="black" points="657.613,-2345.99 654.113,-2335.99 650.613,-2345.99 657.613,-2345.99"/>
</g>
<!-- n4 -->
<g id="node4" class="node"><title>n4</title>
<g id="a_node4"><a xlink:title="[test_graph.lua]:91_">
<ellipse fill="none" stroke="black" cx="654.113" cy="-2183.84" rx="125.792" ry="45.011"/>
<text text-anchor="middle" x="654.113" y="-2200.64" font-family="Times,serif" font-size="14.00">Node4</text>
<text text-anchor="start" x="573.268" y="-2186.64" font-family="Times,serif" font-size="14.00">module = nn.CAddTable</text>
<text text-anchor="start" x="573.268" y="-2172.64" font-family="Times,serif" font-size="14.00">reverseMap = {}</text>
<text text-anchor="middle" x="654.113" y="-2158.64" font-family="Times,serif" font-size="14.00">mapindex = {Node5,Node6}</text>
</a>
</g>
</g>
<!-- n3&#45;&gt;n4 -->
<g id="edge3" class="edge"><title>n3&#45;&gt;n4</title>
<path fill="none" stroke="black" d="M654.113,-2265.06C654.113,-2257 654.113,-2248.22 654.113,-2239.52"/>
<polygon fill="black" stroke="black" points="657.613,-2239.4 654.113,-2229.4 650.613,-2239.4 657.613,-2239.4"/>
</g>
<!-- n5 -->
<g id="node5" class="node"><title>n5</title>
<g id="a_node5"><a xlink:title="[test_graph.lua]:87_">
<ellipse fill="none" stroke="black" cx="767.113" cy="-2057.33" rx="125.792" ry="45.011"/>
<text text-anchor="middle" x="767.113" y="-2074.13" font-family="Times,serif" font-size="14.00">Node5</text>
<text text-anchor="start" x="686.268" y="-2060.13" font-family="Times,serif" font-size="14.00">module = nn.MM</text>
<text text-anchor="start" x="686.268" y="-2046.13" font-family="Times,serif" font-size="14.00">reverseMap = {}</text>
<text text-anchor="middle" x="767.113" y="-2032.13" font-family="Times,serif" font-size="14.00">mapindex = {Node7,Node8}</text>
</a>
</g>
</g>
<!-- n4&#45;&gt;n5 -->
<g id="edge4" class="edge"><title>n4&#45;&gt;n5</title>
<path fill="none" stroke="black" d="M692.37,-2140.68C701.747,-2130.35 711.875,-2119.19 721.557,-2108.52"/>
<polygon fill="black" stroke="black" points="724.383,-2110.62 728.512,-2100.86 719.199,-2105.91 724.383,-2110.62"/>
</g>
<!-- n6 -->
<g id="node6" class="node"><title>n6</title>
<g id="a_node6"><a xlink:title="[test_graph.lua]:91_">
<ellipse fill="none" stroke="black" cx="469.113" cy="-1940.72" rx="181.227" ry="35.2113"/>
<text text-anchor="middle" x="469.113" y="-1950.52" font-family="Times,serif" font-size="14.00">Node6</text>
<text text-anchor="start" x="349.047" y="-1936.52" font-family="Times,serif" font-size="14.00">module = nn.Linear(50 &#45;&gt; 50) without bias</text>
<text text-anchor="middle" x="469.113" y="-1922.52" font-family="Times,serif" font-size="14.00">reverseMap = {}</text>
</a>
</g>
</g>
<!-- n4&#45;&gt;n6 -->
<g id="edge5" class="edge"><title>n4&#45;&gt;n6</title>
<path fill="none" stroke="black" d="M621.252,-2140.01C587.502,-2096.02 535.285,-2027.96 501.653,-1984.13"/>
<polygon fill="black" stroke="black" points="504.255,-1981.77 495.391,-1975.97 498.702,-1986.03 504.255,-1981.77"/>
</g>
<!-- n7 -->
<g id="node7" class="node"><title>n7</title>
<g id="a_node7"><a xlink:title="[test_graph.lua]:86_">
<ellipse fill="none" stroke="black" cx="767.113" cy="-1940.72" rx="98.6254" ry="35.2113"/>
<text text-anchor="middle" x="767.113" y="-1950.52" font-family="Times,serif" font-size="14.00">Node7</text>
<text text-anchor="start" x="705.419" y="-1936.52" font-family="Times,serif" font-size="14.00">module = nn.SoftMax</text>
<text text-anchor="middle" x="767.113" y="-1922.52" font-family="Times,serif" font-size="14.00">reverseMap = {}</text>
</a>
</g>
</g>
<!-- n5&#45;&gt;n7 -->
<g id="edge6" class="edge"><title>n5&#45;&gt;n7</title>
<path fill="none" stroke="black" d="M767.113,-2012.01C767.113,-2003.6 767.113,-1994.78 767.113,-1986.35"/>
<polygon fill="black" stroke="black" points="770.613,-1986.31 767.113,-1976.31 763.613,-1986.31 770.613,-1986.31"/>
</g>
<!-- n8 -->
<g id="node8" class="node"><title>n8</title>
<g id="a_node8"><a xlink:title="[test_graph.lua]:65_">
<ellipse fill="none" stroke="black" cx="875.113" cy="-958.337" rx="135.366" ry="45.011"/>
<text text-anchor="middle" x="875.113" y="-975.137" font-family="Times,serif" font-size="14.00">Node8</text>
<text text-anchor="start" x="787.524" y="-961.137" font-family="Times,serif" font-size="14.00">module = nn.CAddTable</text>
<text text-anchor="start" x="787.524" y="-947.137" font-family="Times,serif" font-size="14.00">reverseMap = {}</text>
<text text-anchor="middle" x="875.113" y="-933.137" font-family="Times,serif" font-size="14.00">mapindex = {Node11,Node12}</text>
</a>
</g>
</g>
<!-- n5&#45;&gt;n8 -->
<g id="edge7" class="edge"><title>n5&#45;&gt;n8</title>
<path fill="none" stroke="black" d="M834.742,-2019.06C850.369,-2007.31 865.278,-1992.92 875.113,-1976.07 909.21,-1917.67 894.113,-1892.73 894.113,-1825.11 894.113,-1825.11 894.113,-1825.11 894.113,-1210.36 894.113,-1142.48 887.121,-1064.58 881.62,-1013.8"/>
<polygon fill="black" stroke="black" points="885.082,-1013.25 880.507,-1003.7 878.124,-1014.02 885.082,-1013.25"/>
</g>
<!-- n9 -->
<g id="node9" class="node"><title>n9</title>
<g id="a_node9"><a xlink:title="[test_graph.lua]:91_">
<ellipse fill="none" stroke="black" cx="582.113" cy="-1697.6" rx="135.591" ry="45.011"/>
<text text-anchor="middle" x="582.113" y="-1714.4" font-family="Times,serif" font-size="14.00">Node9</text>
<text text-anchor="start" x="494.268" y="-1700.4" font-family="Times,serif" font-size="14.00">module = nn.CAddTable</text>
<text text-anchor="start" x="494.268" y="-1686.4" font-family="Times,serif" font-size="14.00">reverseMap = {}</text>
<text text-anchor="middle" x="582.113" y="-1672.4" font-family="Times,serif" font-size="14.00">mapindex = {Node13,Node14}</text>
</a>
</g>
</g>
<!-- n6&#45;&gt;n9 -->
<g id="edge8" class="edge"><title>n6&#45;&gt;n9</title>
<path fill="none" stroke="black" d="M485.183,-1905.43C503.977,-1865.32 535.304,-1798.48 557.243,-1751.66"/>
<polygon fill="black" stroke="black" points="560.425,-1753.12 561.499,-1742.58 554.087,-1750.15 560.425,-1753.12"/>
</g>
<!-- n10 -->
<g id="node10" class="node"><title>n10</title>
<g id="a_node10"><a xlink:title="[test_graph.lua]:86_">
<ellipse fill="none" stroke="black" cx="735.113" cy="-1824.11" rx="130.692" ry="45.011"/>
<text text-anchor="middle" x="735.113" y="-1840.91" font-family="Times,serif" font-size="14.00">Node10</text>
<text text-anchor="start" x="650.768" y="-1826.91" font-family="Times,serif" font-size="14.00">module = nn.MM</text>
<text text-anchor="start" x="650.768" y="-1812.91" font-family="Times,serif" font-size="14.00">reverseMap = {}</text>
<text text-anchor="middle" x="735.113" y="-1798.91" font-family="Times,serif" font-size="14.00">mapindex = {Node9,Node15}</text>
</a>
</g>
</g>
<!-- n7&#45;&gt;n10 -->
<g id="edge9" class="edge"><title>n7&#45;&gt;n10</title>
<path fill="none" stroke="black" d="M757.512,-1905.33C755.187,-1897 752.646,-1887.9 750.136,-1878.91"/>
<polygon fill="black" stroke="black" points="753.498,-1877.94 747.438,-1869.25 746.756,-1879.82 753.498,-1877.94"/>
</g>
<!-- n11 -->
<g id="node11" class="node"><title>n11</title>
<g id="a_node11"><a xlink:title="[test_graph.lua]:65_">
<ellipse fill="none" stroke="black" cx="875.113" cy="-831.828" rx="82.14" ry="35.2113"/>
<text text-anchor="middle" x="875.113" y="-841.628" font-family="Times,serif" font-size="14.00">Node11</text>
<text text-anchor="start" x="825.081" y="-827.628" font-family="Times,serif" font-size="14.00">module = nn.Sum</text>
<text text-anchor="middle" x="875.113" y="-813.628" font-family="Times,serif" font-size="14.00">reverseMap = {}</text>
</a>
</g>
</g>
<!-- n8&#45;&gt;n11 -->
<g id="edge10" class="edge"><title>n8&#45;&gt;n11</title>
<path fill="none" stroke="black" d="M875.113,-912.738C875.113,-901.305 875.113,-889.006 875.113,-877.567"/>
<polygon fill="black" stroke="black" points="878.613,-877.352 875.113,-867.352 871.613,-877.352 878.613,-877.352"/>
</g>
<!-- n12 -->
<g id="node12" class="node"><title>n12</title>
<g id="a_node12"><a xlink:title="[test_graph.lua]:65_">
<ellipse fill="none" stroke="black" cx="1092.11" cy="-831.828" rx="116.608" ry="35.2113"/>
<text text-anchor="middle" x="1092.11" y="-841.628" font-family="Times,serif" font-size="14.00">Node12</text>
<text text-anchor="start" x="1017.7" y="-827.628" font-family="Times,serif" font-size="14.00">module = nn.LookupTable</text>
<text text-anchor="middle" x="1092.11" y="-813.628" font-family="Times,serif" font-size="14.00">reverseMap = {}</text>
</a>
</g>
</g>
<!-- n8&#45;&gt;n12 -->
<g id="edge11" class="edge"><title>n8&#45;&gt;n12</title>
<path fill="none" stroke="black" d="M941.991,-918.964C970.083,-902.845 1002.56,-884.209 1030.11,-868.403"/>
<polygon fill="black" stroke="black" points="1031.94,-871.39 1038.87,-863.377 1028.46,-865.318 1031.94,-871.39"/>
</g>
<!-- n13 -->
<g id="node13" class="node"><title>n13</title>
<g id="a_node13"><a xlink:title="[test_graph.lua]:87_">
<ellipse fill="none" stroke="black" cx="602.113" cy="-1571.09" rx="130.692" ry="45.011"/>
<text text-anchor="middle" x="602.113" y="-1587.89" font-family="Times,serif" font-size="14.00">Node13</text>
<text text-anchor="start" x="517.768" y="-1573.89" font-family="Times,serif" font-size="14.00">module = nn.MM</text>
<text text-anchor="start" x="517.768" y="-1559.89" font-family="Times,serif" font-size="14.00">reverseMap = {}</text>
<text text-anchor="middle" x="602.113" y="-1545.89" font-family="Times,serif" font-size="14.00">mapindex = {Node18,Node8}</text>
</a>
</g>
</g>
<!-- n9&#45;&gt;n13 -->
<g id="edge12" class="edge"><title>n9&#45;&gt;n13</title>
<path fill="none" stroke="black" d="M589.221,-1652.35C590.56,-1644.01 591.976,-1635.2 593.359,-1626.59"/>
<polygon fill="black" stroke="black" points="596.831,-1627.04 594.961,-1616.61 589.919,-1625.93 596.831,-1627.04"/>
</g>
<!-- n14 -->
<g id="node14" class="node"><title>n14</title>
<g id="a_node14"><a xlink:title="[test_graph.lua]:91_">
<ellipse fill="none" stroke="black" cx="304.113" cy="-1454.48" rx="181.227" ry="35.2113"/>
<text text-anchor="middle" x="304.113" y="-1464.28" font-family="Times,serif" font-size="14.00">Node14</text>
<text text-anchor="start" x="184.047" y="-1450.28" font-family="Times,serif" font-size="14.00">module = nn.Linear(50 &#45;&gt; 50) without bias</text>
<text text-anchor="middle" x="304.113" y="-1436.28" font-family="Times,serif" font-size="14.00">reverseMap = {}</text>
</a>
</g>
</g>
<!-- n9&#45;&gt;n14 -->
<g id="edge13" class="edge"><title>n9&#45;&gt;n14</title>
<path fill="none" stroke="black" d="M518.399,-1657.48C499.693,-1645.08 479.579,-1630.81 462.113,-1616.34 417.275,-1579.19 371.199,-1530.9 340.462,-1496.96"/>
<polygon fill="black" stroke="black" points="343.052,-1494.6 333.759,-1489.52 337.85,-1499.29 343.052,-1494.6"/>
</g>
<!-- n10&#45;&gt;n9 -->
<g id="edge14" class="edge"><title>n10&#45;&gt;n9</title>
<path fill="none" stroke="black" d="M684.591,-1781.99C670.49,-1770.52 655.053,-1757.95 640.537,-1746.14"/>
<polygon fill="black" stroke="black" points="642.548,-1743.26 632.582,-1739.67 638.129,-1748.69 642.548,-1743.26"/>
</g>
<!-- n15 -->
<g id="node15" class="node"><title>n15</title>
<g id="a_node15"><a xlink:title="[test_graph.lua]:64_">
<ellipse fill="none" stroke="black" cx="661.113" cy="-705.318" rx="135.591" ry="45.011"/>
<text text-anchor="middle" x="661.113" y="-722.118" font-family="Times,serif" font-size="14.00">Node15</text>
<text text-anchor="start" x="573.268" y="-708.118" font-family="Times,serif" font-size="14.00">module = nn.CAddTable</text>
<text text-anchor="start" x="573.268" y="-694.118" font-family="Times,serif" font-size="14.00">reverseMap = {}</text>
<text text-anchor="middle" x="661.113" y="-680.118" font-family="Times,serif" font-size="14.00">mapindex = {Node20,Node21}</text>
</a>
</g>
</g>
<!-- n10&#45;&gt;n15 -->
<g id="edge15" class="edge"><title>n10&#45;&gt;n15</title>
<path fill="none" stroke="black" d="M744.198,-1778.89C753.658,-1728.91 767.113,-1645.01 767.113,-1572.09 767.113,-1572.09 767.113,-1572.09 767.113,-1336.87 767.113,-1213.13 707.253,-907.73 682.113,-786.573 680.349,-778.069 678.25,-769.118 676.073,-760.402"/>
<polygon fill="black" stroke="black" points="679.46,-759.522 673.595,-750.699 672.678,-761.254 679.46,-759.522"/>
</g>
<!-- n16 -->
<g id="node16" class="node"><title>n16</title>
<g id="a_node16"><a xlink:title="[test_graph.lua]:65_">
<ellipse fill="none" stroke="black" cx="931.113" cy="-705.318" rx="116.608" ry="35.2113"/>
<text text-anchor="middle" x="931.113" y="-715.118" font-family="Times,serif" font-size="14.00">Node16</text>
<text text-anchor="start" x="856.697" y="-701.118" font-family="Times,serif" font-size="14.00">module = nn.LookupTable</text>
<text text-anchor="middle" x="931.113" y="-687.118" font-family="Times,serif" font-size="14.00">reverseMap = {}</text>
</a>
</g>
</g>
<!-- n11&#45;&gt;n16 -->
<g id="edge16" class="edge"><title>n11&#45;&gt;n16</title>
<path fill="none" stroke="black" d="M890.415,-796.805C896.905,-782.375 904.55,-765.378 911.451,-750.034"/>
<polygon fill="black" stroke="black" points="914.725,-751.288 915.635,-740.732 908.341,-748.417 914.725,-751.288"/>
</g>
<!-- n17 -->
<g id="node17" class="node"><title>n17</title>
<g id="a_node17"><a xlink:title="[test_graph.lua]:43_">
<ellipse fill="none" stroke="black" cx="947.113" cy="-481.997" rx="94.9112" ry="35.2113"/>
<text text-anchor="middle" x="947.113" y="-491.797" font-family="Times,serif" font-size="14.00">Node17</text>
<text text-anchor="start" x="888.146" y="-477.797" font-family="Times,serif" font-size="14.00">module = nn.Identity</text>
<text text-anchor="middle" x="947.113" y="-463.797" font-family="Times,serif" font-size="14.00">reverseMap = {}</text>
</a>
</g>
</g>
<!-- n12&#45;&gt;n17 -->
<g id="edge17" class="edge"><title>n12&#45;&gt;n17</title>
<path fill="none" stroke="black" d="M1099.49,-796.499C1109.5,-740.711 1121.07,-629.004 1073.11,-553.352 1061.65,-535.267 1043.8,-521.416 1025.1,-510.987"/>
<polygon fill="black" stroke="black" points="1026.65,-507.85 1016.17,-506.287 1023.39,-514.044 1026.65,-507.85"/>
</g>
<!-- n13&#45;&gt;n8 -->
<g id="edge19" class="edge"><title>n13&#45;&gt;n8</title>
<path fill="none" stroke="black" d="M667.493,-1531.76C683.237,-1519.98 698.766,-1505.84 710.113,-1489.83 817.29,-1338.63 856.534,-1115.54 869.442,-1013.66"/>
<polygon fill="black" stroke="black" points="872.933,-1013.95 870.681,-1003.6 865.985,-1013.1 872.933,-1013.95"/>
</g>
<!-- n18 -->
<g id="node18" class="node"><title>n18</title>
<g id="a_node18"><a xlink:title="[test_graph.lua]:86_">
<ellipse fill="none" stroke="black" cx="602.113" cy="-1454.48" rx="98.6254" ry="35.2113"/>
<text text-anchor="middle" x="602.113" y="-1464.28" font-family="Times,serif" font-size="14.00">Node18</text>
<text text-anchor="start" x="540.419" y="-1450.28" font-family="Times,serif" font-size="14.00">module = nn.SoftMax</text>
<text text-anchor="middle" x="602.113" y="-1436.28" font-family="Times,serif" font-size="14.00">reverseMap = {}</text>
</a>
</g>
</g>
<!-- n13&#45;&gt;n18 -->
<g id="edge18" class="edge"><title>n13&#45;&gt;n18</title>
<path fill="none" stroke="black" d="M602.113,-1525.78C602.113,-1517.36 602.113,-1508.54 602.113,-1500.11"/>
<polygon fill="black" stroke="black" points="605.613,-1500.07 602.113,-1490.07 598.613,-1500.07 605.613,-1500.07"/>
</g>
<!-- n19 -->
<g id="node19" class="node"><title>n19</title>
<g id="a_node19"><a xlink:title="[test_graph.lua]:91_">
<ellipse fill="none" stroke="black" cx="439.113" cy="-1211.36" rx="135.591" ry="45.011"/>
<text text-anchor="middle" x="439.113" y="-1228.16" font-family="Times,serif" font-size="14.00">Node19</text>
<text text-anchor="start" x="351.268" y="-1214.16" font-family="Times,serif" font-size="14.00">module = nn.CAddTable</text>
<text text-anchor="start" x="351.268" y="-1200.16" font-family="Times,serif" font-size="14.00">reverseMap = {}</text>
<text text-anchor="middle" x="439.113" y="-1186.16" font-family="Times,serif" font-size="14.00">mapindex = {Node25,Node26}</text>
</a>
</g>
</g>
<!-- n14&#45;&gt;n19 -->
<g id="edge20" class="edge"><title>n14&#45;&gt;n19</title>
<path fill="none" stroke="black" d="M323.312,-1419.19C345.88,-1378.88 383.575,-1311.55 409.804,-1264.71"/>
<polygon fill="black" stroke="black" points="412.894,-1266.35 414.725,-1255.92 406.786,-1262.93 412.894,-1266.35"/>
</g>
<!-- n20 -->
<g id="node20" class="node"><title>n20</title>
<g id="a_node20"><a xlink:title="[test_graph.lua]:64_">
<ellipse fill="none" stroke="black" cx="660.113" cy="-588.708" rx="82.14" ry="35.2113"/>
<text text-anchor="middle" x="660.113" y="-598.508" font-family="Times,serif" font-size="14.00">Node20</text>
<text text-anchor="start" x="610.081" y="-584.508" font-family="Times,serif" font-size="14.00">module = nn.Sum</text>
<text text-anchor="middle" x="660.113" y="-570.508" font-family="Times,serif" font-size="14.00">reverseMap = {}</text>
</a>
</g>
</g>
<!-- n15&#45;&gt;n20 -->
<g id="edge21" class="edge"><title>n15&#45;&gt;n20</title>
<path fill="none" stroke="black" d="M660.727,-660.007C660.653,-651.587 660.576,-642.773 660.503,-634.344"/>
<polygon fill="black" stroke="black" points="664.002,-634.275 660.415,-624.306 657.003,-634.336 664.002,-634.275"/>
</g>
<!-- n21 -->
<g id="node21" class="node"><title>n21</title>
<g id="a_node21"><a xlink:title="[test_graph.lua]:64_">
<ellipse fill="none" stroke="black" cx="947.113" cy="-588.708" rx="116.608" ry="35.2113"/>
<text text-anchor="middle" x="947.113" y="-598.508" font-family="Times,serif" font-size="14.00">Node21</text>
<text text-anchor="start" x="872.697" y="-584.508" font-family="Times,serif" font-size="14.00">module = nn.LookupTable</text>
<text text-anchor="middle" x="947.113" y="-570.508" font-family="Times,serif" font-size="14.00">reverseMap = {}</text>
</a>
</g>
</g>
<!-- n15&#45;&gt;n21 -->
<g id="edge22" class="edge"><title>n15&#45;&gt;n21</title>
<path fill="none" stroke="black" d="M746.535,-670.086C785.229,-654.58 830.674,-636.369 868.515,-621.205"/>
<polygon fill="black" stroke="black" points="869.982,-624.388 877.963,-617.419 867.378,-617.89 869.982,-624.388"/>
</g>
<!-- n22 -->
<g id="node22" class="node"><title>n22</title>
<g id="a_node22"><a xlink:title="[test_graph.lua]:41_">
<ellipse fill="none" stroke="black" cx="686.113" cy="-375.286" rx="94.9112" ry="35.2113"/>
<text text-anchor="middle" x="686.113" y="-385.086" font-family="Times,serif" font-size="14.00">Node22</text>
<text text-anchor="start" x="627.146" y="-371.086" font-family="Times,serif" font-size="14.00">module = nn.Identity</text>
<text text-anchor="middle" x="686.113" y="-357.086" font-family="Times,serif" font-size="14.00">reverseMap = {}</text>
</a>
</g>
</g>
<!-- n16&#45;&gt;n22 -->
<g id="edge23" class="edge"><title>n16&#45;&gt;n22</title>
<path fill="none" stroke="black" d="M874.125,-674.28C854.568,-661.302 834.306,-644.388 821.113,-624.063 777.207,-556.421 827.114,-514.222 783.113,-446.642 774.042,-432.71 761.182,-420.62 747.783,-410.58"/>
<polygon fill="black" stroke="black" points="749.571,-407.556 739.399,-404.595 745.504,-413.254 749.571,-407.556"/>
</g>
<!-- n23 -->
<g id="node23" class="node"><title>n23</title>
<g id="a_node23"><a xlink:title="[[C]]:&#45;1_&#45;3">
<ellipse fill="none" stroke="black" cx="874.113" cy="-258.676" rx="78.145" ry="45.011"/>
<text text-anchor="middle" x="874.113" y="-275.476" font-family="Times,serif" font-size="14.00">Node23</text>
<text text-anchor="start" x="826.908" y="-261.476" font-family="Times,serif" font-size="14.00">input = {}</text>
<text text-anchor="start" x="826.908" y="-247.476" font-family="Times,serif" font-size="14.00">selectindex = 3</text>
<text text-anchor="middle" x="874.113" y="-233.476" font-family="Times,serif" font-size="14.00">reverseMap = {}</text>
</a>
</g>
</g>
<!-- n17&#45;&gt;n23 -->
<g id="edge24" class="edge"><title>n17&#45;&gt;n23</title>
<path fill="none" stroke="black" d="M935.707,-446.416C923.939,-410.737 905.425,-354.607 891.765,-313.193"/>
<polygon fill="black" stroke="black" points="895.036,-311.935 888.579,-303.534 888.388,-314.127 895.036,-311.935"/>
</g>
<!-- n24 -->
<g id="node24" class="node"><title>n24</title>
<g id="a_node24"><a xlink:title="[test_graph.lua]:86_">
<ellipse fill="none" stroke="black" cx="565.113" cy="-1337.87" rx="135.591" ry="45.011"/>
<text text-anchor="middle" x="565.113" y="-1354.67" font-family="Times,serif" font-size="14.00">Node24</text>
<text text-anchor="start" x="477.268" y="-1340.67" font-family="Times,serif" font-size="14.00">module = nn.MM</text>
<text text-anchor="start" x="477.268" y="-1326.67" font-family="Times,serif" font-size="14.00">reverseMap = {}</text>
<text text-anchor="middle" x="565.113" y="-1312.67" font-family="Times,serif" font-size="14.00">mapindex = {Node19,Node15}</text>
</a>
</g>
</g>
<!-- n18&#45;&gt;n24 -->
<g id="edge25" class="edge"><title>n18&#45;&gt;n24</title>
<path fill="none" stroke="black" d="M591.012,-1419.09C588.323,-1410.76 585.385,-1401.66 582.484,-1392.67"/>
<polygon fill="black" stroke="black" points="585.767,-1391.45 579.364,-1383.01 579.105,-1393.6 585.767,-1391.45"/>
</g>
<!-- n25 -->
<g id="node25" class="node"><title>n25</title>
<g id="a_node25"><a xlink:title="[test_graph.lua]:87_">
<ellipse fill="none" stroke="black" cx="511.113" cy="-1084.85" rx="130.692" ry="45.011"/>
<text text-anchor="middle" x="511.113" y="-1101.65" font-family="Times,serif" font-size="14.00">Node25</text>
<text text-anchor="start" x="426.768" y="-1087.65" font-family="Times,serif" font-size="14.00">module = nn.MM</text>
<text text-anchor="start" x="426.768" y="-1073.65" font-family="Times,serif" font-size="14.00">reverseMap = {}</text>
<text text-anchor="middle" x="511.113" y="-1059.65" font-family="Times,serif" font-size="14.00">mapindex = {Node30,Node8}</text>
</a>
</g>
</g>
<!-- n19&#45;&gt;n25 -->
<g id="edge26" class="edge"><title>n19&#45;&gt;n25</title>
<path fill="none" stroke="black" d="M464.295,-1166.81C469.581,-1157.67 475.21,-1147.93 480.664,-1138.5"/>
<polygon fill="black" stroke="black" points="483.848,-1139.99 485.824,-1129.58 477.788,-1136.48 483.848,-1139.99"/>
</g>
<!-- n26 -->
<g id="node26" class="node"><title>n26</title>
<g id="a_node26"><a xlink:title="[test_graph.lua]:91_">
<ellipse fill="none" stroke="black" cx="181.113" cy="-1084.85" rx="181.227" ry="35.2113"/>
<text text-anchor="middle" x="181.113" y="-1094.65" font-family="Times,serif" font-size="14.00">Node26</text>
<text text-anchor="start" x="61.0468" y="-1080.65" font-family="Times,serif" font-size="14.00">module = nn.Linear(50 &#45;&gt; 50) without bias</text>
<text text-anchor="middle" x="181.113" y="-1066.65" font-family="Times,serif" font-size="14.00">reverseMap = {}</text>
</a>
</g>
</g>
<!-- n19&#45;&gt;n26 -->
<g id="edge27" class="edge"><title>n19&#45;&gt;n26</title>
<path fill="none" stroke="black" d="M363.1,-1173.67C329.541,-1157.48 290.192,-1138.49 256.684,-1122.32"/>
<polygon fill="black" stroke="black" points="257.925,-1119.03 247.398,-1117.84 254.882,-1125.33 257.925,-1119.03"/>
</g>
<!-- n27 -->
<g id="node27" class="node"><title>n27</title>
<g id="a_node27"><a xlink:title="[test_graph.lua]:64_">
<ellipse fill="none" stroke="black" cx="657.113" cy="-481.997" rx="116.608" ry="35.2113"/>
<text text-anchor="middle" x="657.113" y="-491.797" font-family="Times,serif" font-size="14.00">Node27</text>
<text text-anchor="start" x="582.697" y="-477.797" font-family="Times,serif" font-size="14.00">module = nn.LookupTable</text>
<text text-anchor="middle" x="657.113" y="-463.797" font-family="Times,serif" font-size="14.00">reverseMap = {}</text>
</a>
</g>
</g>
<!-- n20&#45;&gt;n27 -->
<g id="edge28" class="edge"><title>n20&#45;&gt;n27</title>
<path fill="none" stroke="black" d="M659.123,-553.131C658.89,-545 658.638,-536.219 658.394,-527.714"/>
<polygon fill="black" stroke="black" points="661.888,-527.433 658.103,-517.537 654.891,-527.633 661.888,-527.433"/>
</g>
<!-- n21&#45;&gt;n17 -->
<g id="edge29" class="edge"><title>n21&#45;&gt;n17</title>
<path fill="none" stroke="black" d="M947.113,-553.131C947.113,-545 947.113,-536.219 947.113,-527.714"/>
<polygon fill="black" stroke="black" points="950.613,-527.537 947.113,-517.537 943.613,-527.537 950.613,-527.537"/>
</g>
<!-- n28 -->
<g id="node28" class="node"><title>n28</title>
<g id="a_node28"><a xlink:title="[[C]]:&#45;1_&#45;1">
<ellipse fill="none" stroke="black" cx="686.113" cy="-258.676" rx="78.145" ry="45.011"/>
<text text-anchor="middle" x="686.113" y="-275.476" font-family="Times,serif" font-size="14.00">Node28</text>
<text text-anchor="start" x="638.908" y="-261.476" font-family="Times,serif" font-size="14.00">input = {}</text>
<text text-anchor="start" x="638.908" y="-247.476" font-family="Times,serif" font-size="14.00">selectindex = 1</text>
<text text-anchor="middle" x="686.113" y="-233.476" font-family="Times,serif" font-size="14.00">reverseMap = {}</text>
</a>
</g>
</g>
<!-- n22&#45;&gt;n28 -->
<g id="edge30" class="edge"><title>n22&#45;&gt;n28</title>
<path fill="none" stroke="black" d="M686.113,-339.9C686.113,-331.843 686.113,-323.063 686.113,-314.363"/>
<polygon fill="black" stroke="black" points="689.613,-314.236 686.113,-304.236 682.613,-314.236 689.613,-314.236"/>
</g>
<!-- n29 -->
<g id="node29" class="node"><title>n29</title>
<g id="a_node29"><a xlink:title="[[C]]:&#45;1_ split at [...sdrizard/torch/install/share/lua/5.1/nngraph/gmodule.lua]:96&#45;mnode">
<ellipse fill="none" stroke="black" cx="686.113" cy="-142.066" rx="81.6087" ry="35.2113"/>
<text text-anchor="middle" x="686.113" y="-151.866" font-family="Times,serif" font-size="14.00">Node29</text>
<text text-anchor="start" x="636.269" y="-137.866" font-family="Times,serif" font-size="14.00">reverseMap = {}</text>
<text text-anchor="middle" x="686.113" y="-123.866" font-family="Times,serif" font-size="14.00">nSplitOutputs = 3</text>
</a>
</g>
</g>
<!-- n23&#45;&gt;n29 -->
<g id="edge31" class="edge"><title>n23&#45;&gt;n29</title>
<path fill="none" stroke="black" d="M820.994,-225.293C796.032,-210.075 766.292,-191.946 741.099,-176.587"/>
<polygon fill="black" stroke="black" points="742.753,-173.496 732.392,-171.279 739.109,-179.473 742.753,-173.496"/>
</g>
<!-- n24&#45;&gt;n15 -->
<g id="edge33" class="edge"><title>n24&#45;&gt;n15</title>
<path fill="none" stroke="black" d="M595.766,-1293.37C626.758,-1245.04 670.113,-1163.55 670.113,-1085.85 670.113,-1085.85 670.113,-1085.85 670.113,-957.337 670.113,-889.614 666.801,-811.679 664.195,-760.846"/>
<polygon fill="black" stroke="black" points="667.684,-760.542 663.668,-750.738 660.694,-760.906 667.684,-760.542"/>
</g>
<!-- n24&#45;&gt;n19 -->
<g id="edge32" class="edge"><title>n24&#45;&gt;n19</title>
<path fill="none" stroke="black" d="M522.455,-1294.71C511.679,-1284.06 500.014,-1272.54 488.92,-1261.57"/>
<polygon fill="black" stroke="black" points="491.3,-1259.01 481.727,-1254.47 486.38,-1263.98 491.3,-1259.01"/>
</g>
<!-- n25&#45;&gt;n8 -->
<g id="edge35" class="edge"><title>n25&#45;&gt;n8</title>
<path fill="none" stroke="black" d="M602.966,-1052.43C654.623,-1034.76 719.242,-1012.65 772.55,-994.42"/>
<polygon fill="black" stroke="black" points="773.695,-997.727 782.024,-991.179 771.429,-991.104 773.695,-997.727"/>
</g>
<!-- n30 -->
<g id="node30" class="node"><title>n30</title>
<g id="a_node30"><a xlink:title="[test_graph.lua]:86_">
<ellipse fill="none" stroke="black" cx="508.113" cy="-958.337" rx="98.6254" ry="35.2113"/>
<text text-anchor="middle" x="508.113" y="-968.137" font-family="Times,serif" font-size="14.00">Node30</text>
<text text-anchor="start" x="446.419" y="-954.137" font-family="Times,serif" font-size="14.00">module = nn.SoftMax</text>
<text text-anchor="middle" x="508.113" y="-940.137" font-family="Times,serif" font-size="14.00">reverseMap = {}</text>
</a>
</g>
</g>
<!-- n25&#45;&gt;n30 -->
<g id="edge34" class="edge"><title>n25&#45;&gt;n30</title>
<path fill="none" stroke="black" d="M510.039,-1039.25C509.763,-1027.81 509.467,-1015.52 509.191,-1004.08"/>
<polygon fill="black" stroke="black" points="512.685,-1003.77 508.945,-993.861 505.687,-1003.94 512.685,-1003.77"/>
</g>
<!-- n31 -->
<g id="node31" class="node"><title>n31</title>
<g id="a_node31"><a xlink:title="[test_graph.lua]:63_">
<ellipse fill="none" stroke="black" cx="399.113" cy="-705.318" rx="108.869" ry="35.2113"/>
<text text-anchor="middle" x="399.113" y="-715.118" font-family="Times,serif" font-size="14.00">Node31</text>
<text text-anchor="start" x="330.262" y="-701.118" font-family="Times,serif" font-size="14.00">module = nn.View(1,50)</text>
<text text-anchor="middle" x="399.113" y="-687.118" font-family="Times,serif" font-size="14.00">reverseMap = {}</text>
</a>
</g>
</g>
<!-- n26&#45;&gt;n31 -->
<g id="edge36" class="edge"><title>n26&#45;&gt;n31</title>
<path fill="none" stroke="black" d="M200.844,-1049.68C240.727,-980.608 330.847,-824.541 374.498,-748.946"/>
<polygon fill="black" stroke="black" points="377.615,-750.548 379.584,-740.138 371.553,-747.047 377.615,-750.548"/>
</g>
<!-- n27&#45;&gt;n22 -->
<g id="edge37" class="edge"><title>n27&#45;&gt;n22</title>
<path fill="none" stroke="black" d="M666.609,-446.711C668.937,-438.304 671.462,-429.188 673.898,-420.391"/>
<polygon fill="black" stroke="black" points="677.3,-421.221 676.596,-410.65 670.554,-419.353 677.3,-421.221"/>
</g>
<!-- n28&#45;&gt;n29 -->
<g id="edge38" class="edge"><title>n28&#45;&gt;n29</title>
<path fill="none" stroke="black" d="M686.113,-213.365C686.113,-204.946 686.113,-196.132 686.113,-187.703"/>
<polygon fill="black" stroke="black" points="689.613,-187.664 686.113,-177.664 682.613,-187.664 689.613,-187.664"/>
</g>
<!-- n32 -->
<g id="node32" class="node"><title>n32</title>
<g id="a_node32"><a xlink:title="[[C]]:&#45;1_">
<ellipse fill="none" stroke="black" cx="686.113" cy="-35.3553" rx="78.145" ry="35.2113"/>
<text text-anchor="middle" x="686.113" y="-45.1553" font-family="Times,serif" font-size="14.00">Node32</text>
<text text-anchor="start" x="638.908" y="-31.1553" font-family="Times,serif" font-size="14.00">input = {}</text>
<text text-anchor="middle" x="686.113" y="-17.1553" font-family="Times,serif" font-size="14.00">reverseMap = {}</text>
</a>
</g>
</g>
<!-- n29&#45;&gt;n32 -->
<g id="edge39" class="edge"><title>n29&#45;&gt;n32</title>
<path fill="none" stroke="black" d="M686.113,-106.49C686.113,-98.3583 686.113,-89.5777 686.113,-81.0721"/>
<polygon fill="black" stroke="black" points="689.613,-80.8954 686.113,-70.8954 682.613,-80.8955 689.613,-80.8954"/>
</g>
<!-- n33 -->
<g id="node33" class="node"><title>n33</title>
<g id="a_node33"><a xlink:title="[test_graph.lua]:86_">
<ellipse fill="none" stroke="black" cx="506.113" cy="-831.828" rx="135.591" ry="45.011"/>
<text text-anchor="middle" x="506.113" y="-848.628" font-family="Times,serif" font-size="14.00">Node33</text>
<text text-anchor="start" x="418.268" y="-834.628" font-family="Times,serif" font-size="14.00">module = nn.MM</text>
<text text-anchor="start" x="418.268" y="-820.628" font-family="Times,serif" font-size="14.00">reverseMap = {}</text>
<text text-anchor="middle" x="506.113" y="-806.628" font-family="Times,serif" font-size="14.00">mapindex = {Node31,Node15}</text>
</a>
</g>
</g>
<!-- n30&#45;&gt;n33 -->
<g id="edge40" class="edge"><title>n30&#45;&gt;n33</title>
<path fill="none" stroke="black" d="M507.556,-922.654C507.381,-911.746 507.183,-899.423 506.991,-887.479"/>
<polygon fill="black" stroke="black" points="510.485,-887.067 506.825,-877.125 503.486,-887.18 510.485,-887.067"/>
</g>
<!-- n34 -->
<g id="node34" class="node"><title>n34</title>
<g id="a_node34"><a xlink:title="[test_graph.lua]:63_">
<ellipse fill="none" stroke="black" cx="404.113" cy="-588.708" rx="82.14" ry="35.2113"/>
<text text-anchor="middle" x="404.113" y="-598.508" font-family="Times,serif" font-size="14.00">Node34</text>
<text text-anchor="start" x="354.081" y="-584.508" font-family="Times,serif" font-size="14.00">module = nn.Sum</text>
<text text-anchor="middle" x="404.113" y="-570.508" font-family="Times,serif" font-size="14.00">reverseMap = {}</text>
</a>
</g>
</g>
<!-- n31&#45;&gt;n34 -->
<g id="edge41" class="edge"><title>n31&#45;&gt;n34</title>
<path fill="none" stroke="black" d="M400.613,-669.931C401.103,-658.712 401.654,-646.089 402.171,-634.235"/>
<polygon fill="black" stroke="black" points="405.675,-634.213 402.614,-624.07 398.682,-633.908 405.675,-634.213"/>
</g>
<!-- n33&#45;&gt;n15 -->
<g id="edge43" class="edge"><title>n33&#45;&gt;n15</title>
<path fill="none" stroke="black" d="M557.296,-789.713C571.581,-778.238 587.22,-765.676 601.925,-753.863"/>
<polygon fill="black" stroke="black" points="604.38,-756.38 609.985,-747.389 599.997,-750.923 604.38,-756.38"/>
</g>
<!-- n33&#45;&gt;n31 -->
<g id="edge42" class="edge"><title>n33&#45;&gt;n31</title>
<path fill="none" stroke="black" d="M469.29,-787.978C458.076,-774.93 445.776,-760.617 434.649,-747.669"/>
<polygon fill="black" stroke="black" points="437.065,-745.11 427.893,-739.807 431.756,-749.672 437.065,-745.11"/>
</g>
<!-- n35 -->
<g id="node35" class="node"><title>n35</title>
<g id="a_node35"><a xlink:title="[test_graph.lua]:63_">
<ellipse fill="none" stroke="black" cx="405.113" cy="-481.997" rx="116.608" ry="35.2113"/>
<text text-anchor="middle" x="405.113" y="-491.797" font-family="Times,serif" font-size="14.00">Node35</text>
<text text-anchor="start" x="330.697" y="-477.797" font-family="Times,serif" font-size="14.00">module = nn.LookupTable</text>
<text text-anchor="middle" x="405.113" y="-463.797" font-family="Times,serif" font-size="14.00">reverseMap = {}</text>
</a>
</g>
</g>
<!-- n34&#45;&gt;n35 -->
<g id="edge44" class="edge"><title>n34&#45;&gt;n35</title>
<path fill="none" stroke="black" d="M404.443,-553.131C404.521,-545 404.605,-536.219 404.686,-527.714"/>
<polygon fill="black" stroke="black" points="408.188,-527.57 404.783,-517.537 401.188,-527.503 408.188,-527.57"/>
</g>
<!-- n36 -->
<g id="node36" class="node"><title>n36</title>
<g id="a_node36"><a xlink:title="[test_graph.lua]:42_">
<ellipse fill="none" stroke="black" cx="457.113" cy="-375.286" rx="94.9112" ry="35.2113"/>
<text text-anchor="middle" x="457.113" y="-385.086" font-family="Times,serif" font-size="14.00">Node36</text>
<text text-anchor="start" x="398.146" y="-371.086" font-family="Times,serif" font-size="14.00">module = nn.Identity</text>
<text text-anchor="middle" x="457.113" y="-357.086" font-family="Times,serif" font-size="14.00">reverseMap = {}</text>
</a>
</g>
</g>
<!-- n35&#45;&gt;n36 -->
<g id="edge45" class="edge"><title>n35&#45;&gt;n36</title>
<path fill="none" stroke="black" d="M421.996,-447C426.4,-438.133 431.203,-428.46 435.804,-419.196"/>
<polygon fill="black" stroke="black" points="439.002,-420.626 440.315,-410.112 432.732,-417.512 439.002,-420.626"/>
</g>
<!-- n37 -->
<g id="node37" class="node"><title>n37</title>
<g id="a_node37"><a xlink:title="[[C]]:&#45;1_&#45;2">
<ellipse fill="none" stroke="black" cx="485.113" cy="-258.676" rx="78.145" ry="45.011"/>
<text text-anchor="middle" x="485.113" y="-275.476" font-family="Times,serif" font-size="14.00">Node37</text>
<text text-anchor="start" x="437.908" y="-261.476" font-family="Times,serif" font-size="14.00">input = {}</text>
<text text-anchor="start" x="437.908" y="-247.476" font-family="Times,serif" font-size="14.00">selectindex = 2</text>
<text text-anchor="middle" x="485.113" y="-233.476" font-family="Times,serif" font-size="14.00">reverseMap = {}</text>
</a>
</g>
</g>
<!-- n36&#45;&gt;n37 -->
<g id="edge46" class="edge"><title>n36&#45;&gt;n37</title>
<path fill="none" stroke="black" d="M465.514,-339.9C467.527,-331.66 469.725,-322.663 471.898,-313.769"/>
<polygon fill="black" stroke="black" points="475.356,-314.363 474.329,-303.818 468.556,-312.702 475.356,-314.363"/>
</g>
<!-- n37&#45;&gt;n29 -->
<g id="edge47" class="edge"><title>n37&#45;&gt;n29</title>
<path fill="none" stroke="black" d="M540.037,-226.358C567.622,-210.63 601.018,-191.587 628.912,-175.682"/>
<polygon fill="black" stroke="black" points="630.808,-178.63 637.761,-170.636 627.34,-172.549 630.808,-178.63"/>
</g>
</g>
</svg>
