<?xml version="1.0" encoding="UTF-8" standalone="no"?>
<!DOCTYPE svg PUBLIC "-//W3C//DTD SVG 1.1//EN"
 "http://www.w3.org/Graphics/SVG/1.1/DTD/svg11.dtd">
<!-- Generated by graphviz version 2.38.0 (20140413.2041)
 -->
<!-- Title: G Pages: 1 -->
<svg width="268pt" height="565pt"
 viewBox="0.00 0.00 267.93 564.95" xmlns="http://www.w3.org/2000/svg" xmlns:xlink="http://www.w3.org/1999/xlink">
<g id="graph0" class="graph" transform="scale(1 1) rotate(0) translate(4 560.95)">
<title>G</title>
<polygon fill="white" stroke="none" points="-4,4 -4,-560.95 263.935,-560.95 263.935,4 -4,4"/>
<!-- n1 -->
<g id="node1" class="node"><title>n1</title>
<g id="a_node1"><a xlink:title="[test_graph.lua]:21_">
<ellipse fill="none" stroke="black" cx="129.967" cy="-151.966" rx="125.035" ry="45.011"/>
<text text-anchor="middle" x="129.967" y="-168.766" font-family="Times,serif" font-size="14.00">Node1</text>
<text text-anchor="start" x="49.5666" y="-154.766" font-family="Times,serif" font-size="14.00">input = {Tensor[10]}</text>
<text text-anchor="start" x="49.5666" y="-140.766" font-family="Times,serif" font-size="14.00">module = nn.Linear(10 &#45;&gt; 1)</text>
<text text-anchor="middle" x="129.967" y="-126.766" font-family="Times,serif" font-size="14.00">reverseMap = {}</text>
</a>
</g>
</g>
<!-- n2 -->
<g id="node2" class="node"><title>n2</title>
<g id="a_node2"><a xlink:title="[[C]]:&#45;1_">
<ellipse fill="none" stroke="black" cx="129.967" cy="-35.3553" rx="90.0816" ry="35.2113"/>
<text text-anchor="middle" x="129.967" y="-45.1553" font-family="Times,serif" font-size="14.00">Node2</text>
<text text-anchor="start" x="74.299" y="-31.1553" font-family="Times,serif" font-size="14.00">input = {Tensor[1]}</text>
<text text-anchor="middle" x="129.967" y="-17.1553" font-family="Times,serif" font-size="14.00">reverseMap = {}</text>
</a>
</g>
</g>
<!-- n1&#45;&gt;n2 -->
<g id="edge1" class="edge"><title>n1&#45;&gt;n2</title>
<path fill="none" stroke="black" d="M129.967,-106.654C129.967,-98.2351 129.967,-89.421 129.967,-80.9919"/>
<polygon fill="black" stroke="black" points="133.468,-80.9535 129.967,-70.9535 126.468,-80.9535 133.468,-80.9535"/>
</g>
<!-- n3 -->
<g id="node3" class="node"><title>n3</title>
<g id="a_node3"><a xlink:title="[test_graph.lua]:21_">
<ellipse fill="none" stroke="black" cx="129.967" cy="-278.475" rx="94.9811" ry="45.011"/>
<text text-anchor="middle" x="129.967" y="-295.275" font-family="Times,serif" font-size="14.00">Node3</text>
<text text-anchor="start" x="70.799" y="-281.275" font-family="Times,serif" font-size="14.00">input = {Tensor[10]}</text>
<text text-anchor="start" x="70.799" y="-267.275" font-family="Times,serif" font-size="14.00">module = nn.Tanh</text>
<text text-anchor="middle" x="129.967" y="-253.275" font-family="Times,serif" font-size="14.00">reverseMap = {}</text>
</a>
</g>
</g>
<!-- n3&#45;&gt;n1 -->
<g id="edge2" class="edge"><title>n3&#45;&gt;n1</title>
<path fill="none" stroke="black" d="M129.967,-232.876C129.967,-224.641 129.967,-215.957 129.967,-207.468"/>
<polygon fill="black" stroke="black" points="133.468,-207.253 129.967,-197.253 126.468,-207.253 133.468,-207.253"/>
</g>
<!-- n4 -->
<g id="node4" class="node"><title>n4</title>
<g id="a_node4"><a xlink:title="[test_graph.lua]:20_">
<ellipse fill="none" stroke="black" cx="129.967" cy="-404.985" rx="129.935" ry="45.011"/>
<text text-anchor="middle" x="129.967" y="-421.785" font-family="Times,serif" font-size="14.00">Node4</text>
<text text-anchor="start" x="46.0666" y="-407.785" font-family="Times,serif" font-size="14.00">input = {Tensor[20]}</text>
<text text-anchor="start" x="46.0666" y="-393.785" font-family="Times,serif" font-size="14.00">module = nn.Linear(20 &#45;&gt; 10)</text>
<text text-anchor="middle" x="129.967" y="-379.785" font-family="Times,serif" font-size="14.00">reverseMap = {}</text>
</a>
</g>
</g>
<!-- n4&#45;&gt;n3 -->
<g id="edge3" class="edge"><title>n4&#45;&gt;n3</title>
<path fill="none" stroke="black" d="M129.967,-359.386C129.967,-351.151 129.967,-342.466 129.967,-333.977"/>
<polygon fill="black" stroke="black" points="133.468,-333.763 129.967,-323.763 126.468,-333.763 133.468,-333.763"/>
</g>
<!-- n5 -->
<g id="node5" class="node"><title>n5</title>
<g id="a_node5"><a xlink:title="[[C]]:&#45;1_">
<ellipse fill="none" stroke="black" cx="129.967" cy="-521.595" rx="94.9811" ry="35.2113"/>
<text text-anchor="middle" x="129.967" y="-531.395" font-family="Times,serif" font-size="14.00">Node5</text>
<text text-anchor="start" x="70.799" y="-517.395" font-family="Times,serif" font-size="14.00">input = {Tensor[20]}</text>
<text text-anchor="middle" x="129.967" y="-503.395" font-family="Times,serif" font-size="14.00">reverseMap = {}</text>
</a>
</g>
</g>
<!-- n5&#45;&gt;n4 -->
<g id="edge4" class="edge"><title>n5&#45;&gt;n4</title>
<path fill="none" stroke="black" d="M129.967,-486.208C129.967,-478.152 129.967,-469.372 129.967,-460.672"/>
<polygon fill="black" stroke="black" points="133.468,-460.545 129.967,-450.545 126.468,-460.545 133.468,-460.545"/>
</g>
</g>
</svg>
